<svg width="400" height="284" viewBox="0 0 400 284" fill="none" xmlns="http://www.w3.org/2000/svg">
<g clip-path="url(#clip0_56_506)">
<rect width="400" height="284" fill="#B3B3B3"/>
<rect width="173" height="284" transform="translate(113)" fill="white"/>
<rect x="113" y="51" width="173" height="16" fill="#E3E3E3"/>
<rect x="125" y="75" width="150" height="46" fill="#939393"/>
<path d="M177.223 102.132C176.776 102.132 176.35 102.051 175.947 101.89C175.551 101.721 175.21 101.487 174.924 101.186C174.645 100.878 174.455 100.515 174.352 100.097L175.661 99.635C175.793 100.009 175.995 100.295 176.266 100.493C176.537 100.684 176.856 100.779 177.223 100.779C177.516 100.779 177.769 100.724 177.982 100.614C178.202 100.504 178.374 100.346 178.499 100.141C178.624 99.9283 178.686 99.679 178.686 99.393C178.686 99.107 178.624 98.865 178.499 98.667C178.382 98.4617 178.213 98.304 177.993 98.194C177.773 98.084 177.513 98.029 177.212 98.029C177.073 98.029 176.926 98.0437 176.772 98.073C176.625 98.1023 176.493 98.1463 176.376 98.205L176.035 97.49L178.158 95.07H174.814V93.805H179.841V94.982L177.707 97.479L177.729 96.918C178.22 96.9253 178.649 97.0317 179.016 97.237C179.383 97.4423 179.669 97.7247 179.874 98.084C180.079 98.4433 180.182 98.865 180.182 99.349C180.182 99.877 180.054 100.354 179.797 100.779C179.54 101.197 179.188 101.527 178.741 101.769C178.294 102.011 177.788 102.132 177.223 102.132ZM181.231 102V100.867L183.453 98.546C183.893 98.084 184.23 97.7173 184.465 97.446C184.707 97.1673 184.875 96.929 184.971 96.731C185.066 96.533 185.114 96.3313 185.114 96.126C185.114 95.7813 185.004 95.51 184.784 95.312C184.571 95.114 184.296 95.015 183.959 95.015C183.607 95.015 183.302 95.1177 183.046 95.323C182.789 95.521 182.602 95.8143 182.485 96.203L181.176 95.796C181.264 95.3633 181.443 94.9893 181.715 94.674C181.986 94.3513 182.316 94.1057 182.705 93.937C183.101 93.761 183.519 93.673 183.959 93.673C184.487 93.673 184.949 93.7683 185.345 93.959C185.748 94.1497 186.06 94.4173 186.28 94.762C186.507 95.1067 186.621 95.51 186.621 95.972C186.621 96.2653 186.566 96.555 186.456 96.841C186.346 97.127 186.181 97.4203 185.961 97.721C185.741 98.0143 185.455 98.3443 185.103 98.711L183.178 100.735H186.731V102H181.231ZM191.182 102.132C190.529 102.132 189.957 101.956 189.466 101.604C188.975 101.252 188.59 100.757 188.311 100.119C188.04 99.481 187.904 98.7403 187.904 97.897C187.904 97.0463 188.04 96.3057 188.311 95.675C188.582 95.0443 188.964 94.553 189.455 94.201C189.946 93.849 190.518 93.673 191.171 93.673C191.838 93.673 192.414 93.849 192.898 94.201C193.389 94.553 193.774 95.048 194.053 95.686C194.332 96.3167 194.471 97.0537 194.471 97.897C194.471 98.7403 194.332 99.481 194.053 100.119C193.782 100.75 193.4 101.245 192.909 101.604C192.418 101.956 191.842 102.132 191.182 102.132ZM191.193 100.768C191.567 100.768 191.886 100.654 192.15 100.427C192.414 100.192 192.616 99.8623 192.755 99.437C192.902 99.0043 192.975 98.491 192.975 97.897C192.975 97.303 192.902 96.7933 192.755 96.368C192.616 95.9353 192.41 95.6053 192.139 95.378C191.875 95.1507 191.552 95.037 191.171 95.037C190.804 95.037 190.489 95.1507 190.225 95.378C189.961 95.6053 189.756 95.9353 189.609 96.368C189.47 96.7933 189.4 97.303 189.4 97.897C189.4 98.4837 189.47 98.9933 189.609 99.426C189.756 99.8513 189.961 100.181 190.225 100.416C190.496 100.651 190.819 100.768 191.193 100.768ZM197.163 102L199.253 98.997L197.152 96.016H198.846L200.485 98.436H199.726L201.365 96.016H203.048L200.958 98.997L203.037 102H201.354L199.737 99.591H200.474L198.857 102H197.163ZM207.023 102V95.081H205.439V93.805H208.519V102H207.023ZM213.451 102.132C212.798 102.132 212.226 101.956 211.735 101.604C211.243 101.252 210.858 100.757 210.58 100.119C210.308 99.481 210.173 98.7403 210.173 97.897C210.173 97.0463 210.308 96.3057 210.58 95.675C210.851 95.0443 211.232 94.553 211.724 94.201C212.215 93.849 212.787 93.673 213.44 93.673C214.107 93.673 214.683 93.849 215.167 94.201C215.658 94.553 216.043 95.048 216.322 95.686C216.6 96.3167 216.74 97.0537 216.74 97.897C216.74 98.7403 216.6 99.481 216.322 100.119C216.05 100.75 215.669 101.245 215.178 101.604C214.686 101.956 214.111 102.132 213.451 102.132ZM213.462 100.768C213.836 100.768 214.155 100.654 214.419 100.427C214.683 100.192 214.884 99.8623 215.024 99.437C215.17 99.0043 215.244 98.491 215.244 97.897C215.244 97.303 215.17 96.7933 215.024 96.368C214.884 95.9353 214.679 95.6053 214.408 95.378C214.144 95.1507 213.821 95.037 213.44 95.037C213.073 95.037 212.758 95.1507 212.494 95.378C212.23 95.6053 212.024 95.9353 211.878 96.368C211.738 96.7933 211.669 97.303 211.669 97.897C211.669 98.4837 211.738 98.9933 211.878 99.426C212.024 99.8513 212.23 100.181 212.494 100.416C212.765 100.651 213.088 100.768 213.462 100.768ZM221.239 102.132C220.586 102.132 220.014 101.956 219.523 101.604C219.031 101.252 218.646 100.757 218.368 100.119C218.096 99.481 217.961 98.7403 217.961 97.897C217.961 97.0463 218.096 96.3057 218.368 95.675C218.639 95.0443 219.02 94.553 219.512 94.201C220.003 93.849 220.575 93.673 221.228 93.673C221.895 93.673 222.471 93.849 222.955 94.201C223.446 94.553 223.831 95.048 224.11 95.686C224.388 96.3167 224.528 97.0537 224.528 97.897C224.528 98.7403 224.388 99.481 224.11 100.119C223.838 100.75 223.457 101.245 222.966 101.604C222.474 101.956 221.899 102.132 221.239 102.132ZM221.25 100.768C221.624 100.768 221.943 100.654 222.207 100.427C222.471 100.192 222.672 99.8623 222.812 99.437C222.958 99.0043 223.032 98.491 223.032 97.897C223.032 97.303 222.958 96.7933 222.812 96.368C222.672 95.9353 222.467 95.6053 222.196 95.378C221.932 95.1507 221.609 95.037 221.228 95.037C220.861 95.037 220.546 95.1507 220.282 95.378C220.018 95.6053 219.812 95.9353 219.666 96.368C219.526 96.7933 219.457 97.303 219.457 97.897C219.457 98.4837 219.526 98.9933 219.666 99.426C219.812 99.8513 220.018 100.181 220.282 100.416C220.553 100.651 220.876 100.768 221.25 100.768Z" fill="white"/>
<rect x="119" y="127" width="49" height="63" fill="#E3E3E3"/>
<rect x="119" y="196" width="161" height="77" fill="#E3E3E3"/>
<rect x="175" y="127" width="49" height="63" fill="#E3E3E3"/>
<rect x="231" y="127" width="49" height="63" fill="#E3E3E3"/>
<rect x="113" width="173" height="29" fill="#E3E3E3"/>
<rect x="113" y="35" width="173" height="10" fill="#E3E3E3"/>
<rect x="119" y="280" width="42" height="29" fill="#E3E3E3"/>
<rect x="168" y="280" width="42" height="6" fill="#E3E3E3"/>
</g>
<defs>
<clipPath id="clip0_56_506">
<rect width="400" height="284" fill="white"/>
</clipPath>
</defs>
</svg>
