<svg width="400" height="284" viewBox="0 0 400 284" fill="none" xmlns="http://www.w3.org/2000/svg">
<g clip-path="url(#clip0_56_62)">
<rect width="400" height="284" fill="#B3B3B3"/>
<rect width="173" height="284" transform="translate(113)" fill="white"/>
<rect x="113" y="51" width="173" height="16" fill="#E3E3E3"/>
<rect x="113" width="173" height="29" fill="#E3E3E3"/>
<rect x="113" y="35" width="173" height="10" fill="#E3E3E3"/>
<path d="M202.034 86L204.817 82.414L205.07 82.678C204.96 82.7587 204.854 82.8247 204.751 82.876C204.648 82.9273 204.538 82.964 204.421 82.986C204.304 83.008 204.179 83.019 204.047 83.019C203.548 83.019 203.105 82.9053 202.716 82.678C202.327 82.4507 202.019 82.1427 201.792 81.754C201.572 81.358 201.462 80.9107 201.462 80.412C201.462 79.884 201.583 79.4147 201.825 79.004C202.074 78.5933 202.412 78.2707 202.837 78.036C203.27 77.794 203.761 77.673 204.311 77.673C204.868 77.673 205.36 77.7903 205.785 78.025C206.21 78.2597 206.544 78.5823 206.786 78.993C207.035 79.3963 207.16 79.862 207.16 80.39C207.16 80.654 207.131 80.918 207.072 81.182C207.013 81.446 206.907 81.7283 206.753 82.029C206.606 82.3223 206.394 82.656 206.115 83.03L203.827 86H202.034ZM204.311 81.765C204.568 81.765 204.795 81.71 204.993 81.6C205.198 81.4827 205.36 81.3213 205.477 81.116C205.594 80.9033 205.653 80.665 205.653 80.401C205.653 80.1223 205.591 79.8803 205.466 79.675C205.349 79.4697 205.191 79.3083 204.993 79.191C204.795 79.0737 204.568 79.015 204.311 79.015C204.062 79.015 203.834 79.0737 203.629 79.191C203.424 79.3083 203.259 79.4697 203.134 79.675C203.017 79.8803 202.958 80.1223 202.958 80.401C202.958 80.665 203.017 80.9033 203.134 81.116C203.259 81.3213 203.424 81.4827 203.629 81.6C203.834 81.71 204.062 81.765 204.311 81.765ZM208.409 86L211.819 79.07H207.958V77.805H213.392V79.07L210.059 86H208.409ZM217.656 86.132C217.003 86.132 216.431 85.956 215.94 85.604C215.448 85.252 215.063 84.757 214.785 84.119C214.513 83.481 214.378 82.7403 214.378 81.897C214.378 81.0463 214.513 80.3057 214.785 79.675C215.056 79.0443 215.437 78.553 215.929 78.201C216.42 77.849 216.992 77.673 217.645 77.673C218.312 77.673 218.888 77.849 219.372 78.201C219.863 78.553 220.248 79.048 220.527 79.686C220.805 80.3167 220.945 81.0537 220.945 81.897C220.945 82.7403 220.805 83.481 220.527 84.119C220.255 84.7497 219.874 85.2447 219.383 85.604C218.891 85.956 218.316 86.132 217.656 86.132ZM217.667 84.768C218.041 84.768 218.36 84.6543 218.624 84.427C218.888 84.1923 219.089 83.8623 219.229 83.437C219.375 83.0043 219.449 82.491 219.449 81.897C219.449 81.303 219.375 80.7933 219.229 80.368C219.089 79.9353 218.884 79.6053 218.613 79.378C218.349 79.1507 218.026 79.037 217.645 79.037C217.278 79.037 216.963 79.1507 216.699 79.378C216.435 79.6053 216.229 79.9353 216.083 80.368C215.943 80.7933 215.874 81.303 215.874 81.897C215.874 82.4837 215.943 82.9933 216.083 83.426C216.229 83.8513 216.435 84.1813 216.699 84.416C216.97 84.6507 217.293 84.768 217.667 84.768ZM223.637 86L225.727 82.997L223.626 80.016H225.32L226.959 82.436H226.2L227.839 80.016H229.522L227.432 82.997L229.511 86H227.828L226.211 83.591H226.948L225.331 86H223.637ZM232.1 86V84.867L234.322 82.546C234.762 82.084 235.099 81.7173 235.334 81.446C235.576 81.1673 235.744 80.929 235.84 80.731C235.935 80.533 235.983 80.3313 235.983 80.126C235.983 79.7813 235.873 79.51 235.653 79.312C235.44 79.114 235.165 79.015 234.828 79.015C234.476 79.015 234.171 79.1177 233.915 79.323C233.658 79.521 233.471 79.8143 233.354 80.203L232.045 79.796C232.133 79.3633 232.312 78.9893 232.584 78.674C232.855 78.3513 233.185 78.1057 233.574 77.937C233.97 77.761 234.388 77.673 234.828 77.673C235.356 77.673 235.818 77.7683 236.214 77.959C236.617 78.1497 236.929 78.4173 237.149 78.762C237.376 79.1067 237.49 79.51 237.49 79.972C237.49 80.2653 237.435 80.555 237.325 80.841C237.215 81.127 237.05 81.4203 236.83 81.721C236.61 82.0143 236.324 82.3443 235.972 82.711L234.047 84.735H237.6V86H232.1ZM241.424 86.132C240.992 86.132 240.577 86.0513 240.181 85.89C239.793 85.7287 239.455 85.5013 239.169 85.208C238.891 84.9073 238.7 84.5517 238.597 84.141L239.895 83.679C240.02 84.053 240.222 84.3317 240.5 84.515C240.779 84.691 241.087 84.779 241.424 84.779C241.703 84.779 241.949 84.7203 242.161 84.603C242.381 84.4783 242.55 84.3097 242.667 84.097C242.785 83.877 242.843 83.624 242.843 83.338C242.843 83.052 242.781 82.8027 242.656 82.59C242.539 82.3773 242.374 82.2123 242.161 82.095C241.949 81.9703 241.703 81.908 241.424 81.908C241.138 81.908 240.878 81.9703 240.643 82.095C240.416 82.2197 240.251 82.3993 240.148 82.634L238.927 82.359L239.576 77.805H244.042V79.07H240.17L240.731 78.421L240.269 81.853L239.84 81.501C240.046 81.2003 240.295 80.9803 240.588 80.841C240.889 80.7017 241.252 80.632 241.677 80.632C242.22 80.632 242.689 80.7493 243.085 80.984C243.489 81.2187 243.8 81.5377 244.02 81.941C244.24 82.3443 244.35 82.81 244.35 83.338C244.35 83.866 244.222 84.3427 243.965 84.768C243.709 85.1933 243.36 85.527 242.92 85.769C242.48 86.011 241.982 86.132 241.424 86.132ZM248.819 86.132C248.166 86.132 247.594 85.956 247.103 85.604C246.611 85.252 246.226 84.757 245.948 84.119C245.676 83.481 245.541 82.7403 245.541 81.897C245.541 81.0463 245.676 80.3057 245.948 79.675C246.219 79.0443 246.6 78.553 247.092 78.201C247.583 77.849 248.155 77.673 248.808 77.673C249.475 77.673 250.051 77.849 250.535 78.201C251.026 78.553 251.411 79.048 251.69 79.686C251.968 80.3167 252.108 81.0537 252.108 81.897C252.108 82.7403 251.968 83.481 251.69 84.119C251.418 84.7497 251.037 85.2447 250.546 85.604C250.054 85.956 249.479 86.132 248.819 86.132ZM248.83 84.768C249.204 84.768 249.523 84.6543 249.787 84.427C250.051 84.1923 250.252 83.8623 250.392 83.437C250.538 83.0043 250.612 82.491 250.612 81.897C250.612 81.303 250.538 80.7933 250.392 80.368C250.252 79.9353 250.047 79.6053 249.776 79.378C249.512 79.1507 249.189 79.037 248.808 79.037C248.441 79.037 248.126 79.1507 247.862 79.378C247.598 79.6053 247.392 79.9353 247.246 80.368C247.106 80.7933 247.037 81.303 247.037 81.897C247.037 82.4837 247.106 82.9933 247.246 83.426C247.392 83.8513 247.598 84.1813 247.862 84.416C248.133 84.6507 248.456 84.768 248.83 84.768Z" fill="white"/>
<rect x="119" y="73" width="49" height="63" fill="#E3E3E3"/>
<rect x="119" y="142" width="161" height="77" fill="#E3E3E3"/>
<rect x="119" y="225" width="42" height="29" fill="#E3E3E3"/>
<rect x="168" y="225" width="42" height="6" fill="#E3E3E3"/>
<rect x="168" y="236" width="112" height="6" fill="#E3E3E3"/>
<rect x="168" y="248" width="112" height="6" fill="#E3E3E3"/>
<rect x="119" y="260" width="42" height="29" fill="#E3E3E3"/>
<rect x="168" y="260" width="42" height="6" fill="#E3E3E3"/>
<rect x="168" y="271" width="112" height="6" fill="#E3E3E3"/>
<rect x="168" y="283" width="112" height="6" fill="#E3E3E3"/>
<rect x="132" y="219" width="135" height="65" fill="#939393"/>
<rect x="175" y="73" width="49" height="63" fill="#E3E3E3"/>
<rect x="231" y="73" width="49" height="63" fill="#E3E3E3"/>
<circle cx="267" cy="219" r="7" fill="#1E1E1E"/>
<path d="M264.896 221.2L266.416 219.016L264.888 216.848H266.12L267.312 218.608H266.76L267.952 216.848H269.176L267.656 219.016L269.168 221.2H267.944L266.768 219.448H267.304L266.128 221.2H264.896Z" fill="white"/>
<path d="M177.223 255.132C176.776 255.132 176.35 255.051 175.947 254.89C175.551 254.721 175.21 254.487 174.924 254.186C174.645 253.878 174.455 253.515 174.352 253.097L175.661 252.635C175.793 253.009 175.995 253.295 176.266 253.493C176.537 253.684 176.856 253.779 177.223 253.779C177.516 253.779 177.769 253.724 177.982 253.614C178.202 253.504 178.374 253.346 178.499 253.141C178.624 252.928 178.686 252.679 178.686 252.393C178.686 252.107 178.624 251.865 178.499 251.667C178.382 251.462 178.213 251.304 177.993 251.194C177.773 251.084 177.513 251.029 177.212 251.029C177.073 251.029 176.926 251.044 176.772 251.073C176.625 251.102 176.493 251.146 176.376 251.205L176.035 250.49L178.158 248.07H174.814V246.805H179.841V247.982L177.707 250.479L177.729 249.918C178.22 249.925 178.649 250.032 179.016 250.237C179.383 250.442 179.669 250.725 179.874 251.084C180.079 251.443 180.182 251.865 180.182 252.349C180.182 252.877 180.054 253.354 179.797 253.779C179.54 254.197 179.188 254.527 178.741 254.769C178.294 255.011 177.788 255.132 177.223 255.132ZM184.619 255.132C183.966 255.132 183.394 254.956 182.903 254.604C182.411 254.252 182.026 253.757 181.748 253.119C181.476 252.481 181.341 251.74 181.341 250.897C181.341 250.046 181.476 249.306 181.748 248.675C182.019 248.044 182.4 247.553 182.892 247.201C183.383 246.849 183.955 246.673 184.608 246.673C185.275 246.673 185.851 246.849 186.335 247.201C186.826 247.553 187.211 248.048 187.49 248.686C187.768 249.317 187.908 250.054 187.908 250.897C187.908 251.74 187.768 252.481 187.49 253.119C187.218 253.75 186.837 254.245 186.346 254.604C185.854 254.956 185.279 255.132 184.619 255.132ZM184.63 253.768C185.004 253.768 185.323 253.654 185.587 253.427C185.851 253.192 186.052 252.862 186.192 252.437C186.338 252.004 186.412 251.491 186.412 250.897C186.412 250.303 186.338 249.793 186.192 249.368C186.052 248.935 185.847 248.605 185.576 248.378C185.312 248.151 184.989 248.037 184.608 248.037C184.241 248.037 183.926 248.151 183.662 248.378C183.398 248.605 183.192 248.935 183.046 249.368C182.906 249.793 182.837 250.303 182.837 250.897C182.837 251.484 182.906 251.993 183.046 252.426C183.192 252.851 183.398 253.181 183.662 253.416C183.933 253.651 184.256 253.768 184.63 253.768ZM192.407 255.132C191.754 255.132 191.182 254.956 190.691 254.604C190.199 254.252 189.814 253.757 189.536 253.119C189.264 252.481 189.129 251.74 189.129 250.897C189.129 250.046 189.264 249.306 189.536 248.675C189.807 248.044 190.188 247.553 190.68 247.201C191.171 246.849 191.743 246.673 192.396 246.673C193.063 246.673 193.639 246.849 194.123 247.201C194.614 247.553 194.999 248.048 195.278 248.686C195.556 249.317 195.696 250.054 195.696 250.897C195.696 251.74 195.556 252.481 195.278 253.119C195.006 253.75 194.625 254.245 194.134 254.604C193.642 254.956 193.067 255.132 192.407 255.132ZM192.418 253.768C192.792 253.768 193.111 253.654 193.375 253.427C193.639 253.192 193.84 252.862 193.98 252.437C194.126 252.004 194.2 251.491 194.2 250.897C194.2 250.303 194.126 249.793 193.98 249.368C193.84 248.935 193.635 248.605 193.364 248.378C193.1 248.151 192.777 248.037 192.396 248.037C192.029 248.037 191.714 248.151 191.45 248.378C191.186 248.605 190.98 248.935 190.834 249.368C190.694 249.793 190.625 250.303 190.625 250.897C190.625 251.484 190.694 251.993 190.834 252.426C190.98 252.851 191.186 253.181 191.45 253.416C191.721 253.651 192.044 253.768 192.418 253.768ZM198.388 255L200.478 251.997L198.377 249.016H200.071L201.71 251.436H200.951L202.59 249.016H204.273L202.183 251.997L204.262 255H202.579L200.962 252.591H201.699L200.082 255H198.388ZM206.851 255V253.867L209.073 251.546C209.513 251.084 209.85 250.717 210.085 250.446C210.327 250.167 210.495 249.929 210.591 249.731C210.686 249.533 210.734 249.331 210.734 249.126C210.734 248.781 210.624 248.51 210.404 248.312C210.191 248.114 209.916 248.015 209.579 248.015C209.227 248.015 208.922 248.118 208.666 248.323C208.409 248.521 208.222 248.814 208.105 249.203L206.796 248.796C206.884 248.363 207.063 247.989 207.335 247.674C207.606 247.351 207.936 247.106 208.325 246.937C208.721 246.761 209.139 246.673 209.579 246.673C210.107 246.673 210.569 246.768 210.965 246.959C211.368 247.15 211.68 247.417 211.9 247.762C212.127 248.107 212.241 248.51 212.241 248.972C212.241 249.265 212.186 249.555 212.076 249.841C211.966 250.127 211.801 250.42 211.581 250.721C211.361 251.014 211.075 251.344 210.723 251.711L208.798 253.735H212.351V255H206.851ZM216.802 255.132C216.15 255.132 215.578 254.956 215.086 254.604C214.595 254.252 214.21 253.757 213.931 253.119C213.66 252.481 213.524 251.74 213.524 250.897C213.524 250.046 213.66 249.306 213.931 248.675C214.203 248.044 214.584 247.553 215.075 247.201C215.567 246.849 216.139 246.673 216.791 246.673C217.459 246.673 218.034 246.849 218.518 247.201C219.01 247.553 219.395 248.048 219.673 248.686C219.952 249.317 220.091 250.054 220.091 250.897C220.091 251.74 219.952 252.481 219.673 253.119C219.402 253.75 219.021 254.245 218.529 254.604C218.038 254.956 217.462 255.132 216.802 255.132ZM216.813 253.768C217.187 253.768 217.506 253.654 217.77 253.427C218.034 253.192 218.236 252.862 218.375 252.437C218.522 252.004 218.595 251.491 218.595 250.897C218.595 250.303 218.522 249.793 218.375 249.368C218.236 248.935 218.031 248.605 217.759 248.378C217.495 248.151 217.173 248.037 216.791 248.037C216.425 248.037 216.109 248.151 215.845 248.378C215.581 248.605 215.376 248.935 215.229 249.368C215.09 249.793 215.02 250.303 215.02 250.897C215.02 251.484 215.09 251.993 215.229 252.426C215.376 252.851 215.581 253.181 215.845 253.416C216.117 253.651 216.439 253.768 216.813 253.768ZM224.59 255.132C223.938 255.132 223.366 254.956 222.874 254.604C222.383 254.252 221.998 253.757 221.719 253.119C221.448 252.481 221.312 251.74 221.312 250.897C221.312 250.046 221.448 249.306 221.719 248.675C221.991 248.044 222.372 247.553 222.863 247.201C223.355 246.849 223.927 246.673 224.579 246.673C225.247 246.673 225.822 246.849 226.306 247.201C226.798 247.553 227.183 248.048 227.461 248.686C227.74 249.317 227.879 250.054 227.879 250.897C227.879 251.74 227.74 252.481 227.461 253.119C227.19 253.75 226.809 254.245 226.317 254.604C225.826 254.956 225.25 255.132 224.59 255.132ZM224.601 253.768C224.975 253.768 225.294 253.654 225.558 253.427C225.822 253.192 226.024 252.862 226.163 252.437C226.31 252.004 226.383 251.491 226.383 250.897C226.383 250.303 226.31 249.793 226.163 249.368C226.024 248.935 225.819 248.605 225.547 248.378C225.283 248.151 224.961 248.037 224.579 248.037C224.213 248.037 223.897 248.151 223.633 248.378C223.369 248.605 223.164 248.935 223.017 249.368C222.878 249.793 222.808 250.303 222.808 250.897C222.808 251.484 222.878 251.993 223.017 252.426C223.164 252.851 223.369 253.181 223.633 253.416C223.905 253.651 224.227 253.768 224.601 253.768Z" fill="white"/>
</g>
<defs>
<clipPath id="clip0_56_62">
<rect width="400" height="284" fill="white"/>
</clipPath>
</defs>
</svg>
