<svg width="26" height="26" viewBox="0 0 26 26" fill="none" xmlns="http://www.w3.org/2000/svg">
<path d="M10.291 17.7471V14.7529C10.291 13.9475 11.1385 13.4238 11.8588 13.7839L14.8531 15.281C15.6516 15.6803 15.6516 16.8197 14.8531 17.219L11.8588 18.7161C11.1385 19.0762 10.291 18.5525 10.291 17.7471Z" fill="#222222"/>
<path d="M12.9993 3.25H7.58268C6.38607 3.25 5.41602 4.22005 5.41602 5.41667V20.5833C5.41602 21.78 6.38607 22.75 7.58268 22.75H18.416C19.6126 22.75 20.5827 21.7799 20.5827 20.5833V10.8333M12.9993 3.25H14.7173C15.0046 3.25 15.2802 3.36414 15.4833 3.5673L20.2654 8.34937C20.4685 8.55253 20.5827 8.82808 20.5827 9.1154V10.8333M12.9993 3.25V8.66667C12.9993 9.86328 13.9694 10.8333 15.166 10.8333H20.5827" stroke="#222222" stroke-width="2"/>
</svg>
