<svg width="31" height="31" viewBox="0 0 31 31" fill="none" xmlns="http://www.w3.org/2000/svg">
<path d="M20.6467 25.6523H9.38477" stroke="#33363F" stroke-width="1.5016" stroke-linecap="round"/>
<path d="M15.7664 23.1497C15.7664 23.5643 15.4303 23.9005 15.0156 23.9005C14.601 23.9005 14.2648 23.5643 14.2648 23.1497H15.0156H15.7664ZM15.0156 23.1497H14.2648V20.0213H15.0156H15.7664V23.1497H15.0156Z" fill="#33363F"/>
<path d="M13.1387 11.8877H16.8927" stroke="#33363F" stroke-width="1.5016" stroke-linecap="round"/>
<path d="M6.88157 18.1443C6.88157 18.1443 4.37891 16.2673 4.37891 13.139C4.37891 12.1813 4.37891 11.3408 4.37891 10.6356C4.37891 10.6352 4.37891 10.6363 4.37891 10.6363C4.37891 9.25415 5.49939 8.13367 6.88157 8.13367M9.38423 11.8877V10.6363C9.38423 10.6363 9.38423 10.6363 9.38423 10.6363C9.38423 9.25415 8.26375 8.13367 6.88157 8.13367M6.88157 8.13367C6.88157 8.13367 6.88157 8.13367 6.88157 8.13367ZM6.88157 8.13367C6.88157 8.13367 6.88157 8.13367 6.88157 8.13367Z" stroke="#33363F" stroke-width="1.5016" stroke-linecap="round"/>
<path d="M23.1497 18.1443C23.1497 18.1443 25.6523 16.2673 25.6523 13.139C25.6523 12.1813 25.6523 11.3408 25.6523 10.6356C25.6523 10.6352 25.6523 10.6363 25.6523 10.6363C25.6523 9.25415 24.5319 8.13367 23.1497 8.13367M20.647 11.8877V10.6363C20.647 10.6363 20.647 10.6363 20.647 10.6363C20.647 9.25415 21.7675 8.13367 23.1497 8.13367M23.1497 8.13367C23.1497 8.13367 23.1497 8.13367 23.1497 8.13367ZM23.1497 8.13367C23.1497 8.13367 23.1497 8.13367 23.1497 8.13367Z" stroke="#33363F" stroke-width="1.5016" stroke-linecap="round"/>
<path d="M20.6467 14.2142V9.38499C20.6467 8.0028 19.5263 6.88232 18.1441 6.88232H11.8874C10.5052 6.88232 9.38477 8.0028 9.38477 9.38499V14.2142C9.38477 15.8878 10.2212 17.4506 11.6136 18.3789L14.3216 20.1842C14.742 20.4644 15.2895 20.4644 15.7099 20.1842L18.4179 18.3789C19.8104 17.4506 20.6467 15.8878 20.6467 14.2142Z" stroke="#33363F" stroke-width="1.5016"/>
</svg>
