<svg width="31" height="31" viewBox="0 0 31 31" fill="none" xmlns="http://www.w3.org/2000/svg">
<path d="M15.1914 30.3731C23.5815 30.3731 30.3829 23.5739 30.3829 15.1866C30.3829 6.79926 23.5815 0 15.1914 0C6.80144 0 0 6.79926 0 15.1866C0 23.5739 6.80144 30.3731 15.1914 30.3731Z" fill="#2ABFCC"/>
<path d="M17.551 8.26548C17.6932 8.26548 17.8289 8.26548 17.9712 8.26548C18.0681 8.27841 18.1651 8.29133 18.262 8.31072C19.5226 8.51751 20.5957 9.07328 21.365 10.1008C22.5932 11.7358 22.632 13.5065 21.8434 15.3418C21.8046 15.4387 21.7399 15.4452 21.6494 15.4452C20.8608 15.4452 20.0721 15.4452 19.2834 15.4452C19.1735 15.4452 19.1218 15.4129 19.083 15.303C18.8826 14.7472 18.6758 14.1915 18.4624 13.6357C18.3396 13.3191 18.1004 13.1575 17.7837 13.164C17.4798 13.1704 17.2536 13.3514 17.1502 13.6745C17.0209 14.0816 16.8916 14.4952 16.7687 14.9088C16.6653 15.2384 16.5619 15.5744 16.4455 15.9299C16.4197 15.8717 16.4068 15.8458 16.4003 15.82C15.9995 14.2109 15.5987 12.6017 15.1979 10.9926C15.1009 10.6113 14.8553 10.3981 14.5062 10.3981C14.1571 10.3981 13.9115 10.6242 13.8274 11.0055C13.5236 12.4272 13.2133 13.849 12.916 15.2707C12.8836 15.4193 12.8254 15.4387 12.6962 15.4387C12.1014 15.4387 11.5067 15.4387 10.9055 15.4387C10.5112 15.4387 10.2074 15.736 10.2074 16.1108C10.2074 16.4856 10.5047 16.7893 10.9055 16.7893C11.7459 16.7893 12.5863 16.7893 13.4331 16.7893C13.7822 16.7893 14.0343 16.5761 14.1054 16.24C14.1894 15.8458 14.2735 15.4516 14.3575 15.0639C14.4222 14.7666 14.4868 14.4694 14.5514 14.1721C14.5967 14.2302 14.6161 14.2884 14.629 14.3401C14.9846 15.7554 15.3337 17.1706 15.6892 18.5924C15.7732 18.9349 16.0189 19.1546 16.3292 19.1675C16.6718 19.1804 16.9239 18.9995 17.0338 18.6376C17.2277 18.0107 17.4217 17.3839 17.6221 16.757C17.6996 16.505 17.8225 16.0656 17.913 15.7812C17.9518 15.8782 17.9776 15.9363 18.0035 15.9945C18.1909 16.4921 18.3009 16.5438 18.8245 16.5438C20.1755 16.5438 23.4013 16.5438 24.7524 16.5438C24.8429 16.5438 25.5734 16.6407 25.5281 17.4485C25.5087 17.7846 25.1984 18.1271 24.7976 18.1271C23.7245 18.1271 20.7832 18.1271 19.7101 18.1271C19.6196 18.1271 19.5097 18.1594 19.445 18.2175C17.8354 19.5165 16.1805 20.7508 14.4351 21.8623C14.2993 21.9463 14.2153 21.9592 14.086 21.8623C13.6529 21.565 13.2198 21.2678 12.7737 20.9899C11.7653 20.3501 10.7374 19.7297 9.73543 19.077C8.83687 18.489 8.00943 17.8039 7.40177 16.9057C6.14767 15.0639 5.84386 13.0864 6.6907 10.9991C7.52461 8.94403 9.29585 8.14916 11.358 8.42704C12.0045 8.51105 12.5863 8.77601 13.1487 9.0862C13.4266 9.2413 13.7111 9.3964 13.9955 9.53857C14.1636 9.62258 14.3446 9.62258 14.5191 9.52564C14.7195 9.41578 14.9199 9.30592 15.1139 9.1896C15.6633 8.84709 16.2258 8.53044 16.8657 8.37534C17.092 8.32364 17.3182 8.29133 17.551 8.24609V8.26548Z" fill="white"/>
</svg>
