<svg width="218" height="25" viewBox="0 0 218 25" fill="none" xmlns="http://www.w3.org/2000/svg">
<g clip-path="url(#clip0_461_74)">
<path d="M10.6134 -5.40299e-05C4.33226 0.0260284 0.146955 3.05811 0.166125 7.73338C0.185294 13.3933 5.23322 14.4626 9.04152 15.0365C11.3994 15.3951 13.2588 15.7733 13.2652 17.1231C13.2652 18.3294 12.1022 18.9293 10.8626 18.9358C9.44408 18.9358 8.30031 18.3228 8.0575 16.9926C8.01277 16.9861 7.97443 16.9796 7.9297 16.9666C3.7444 16.171 1.25878 14.88 0.070278 14.104C-0.511192 19.2683 2.41533 24.4979 10.722 24.85C17.246 24.8239 21.5591 21.6223 21.5399 16.7449C21.5208 10.8307 16.3642 10.0808 12.4856 9.44178C10.1533 9.05707 8.27475 8.7506 8.26836 7.42692C8.26836 6.3445 9.16932 5.70548 10.5303 5.69896C11.9553 5.69896 12.9585 6.29885 13.0926 7.58993C14.3067 7.53125 19.2652 8.48977 21.1949 10.3547C22.1278 3.78842 16.8626 -0.0261365 10.6134 -5.40299e-05Z" fill="url(#paint0_linear_461_74)"/>
<path opacity="0.5" d="M11.6805 15.5842C12.6454 15.8972 13.2588 16.3537 13.2652 17.1231C13.2652 18.3294 12.1022 18.9293 10.8626 18.9358C9.44408 18.9358 8.30031 18.3229 8.0575 16.9927C8.01277 16.9862 7.97443 16.9797 7.9297 16.9666C3.7444 16.1711 1.25878 14.88 0.070278 14.1041C-0.511192 19.2684 2.41533 24.4979 10.722 24.85C13.8402 24.837 16.4537 24.1002 18.3259 22.796C18.4473 17.9643 13.9808 16.1776 11.6741 15.5777L11.6805 15.5842Z" fill="url(#paint1_linear_461_74)" style="mix-blend-mode:multiply"/>
<path d="M24.5628 14.228L24.5117 0.86724L32.4095 0.834637L32.4542 13.8432C32.4606 16.3146 33.7705 17.7621 35.8791 17.7556C37.9878 17.7491 39.2593 16.2624 39.2529 13.8172L39.2082 0.808554L47.106 0.775951L47.1571 14.1367C47.1826 20.6899 42.6842 24.9674 35.9047 24.9935C29.1315 25.0196 24.5756 20.7681 24.5501 14.2214L24.5628 14.228Z" fill="url(#paint2_linear_461_74)"/>
<path d="M75.8213 0.652061L75.9044 24.061L69.7958 24.0871L69.1121 22.4309C67.2399 23.9893 64.8629 24.8957 62.1983 24.9022C55.1823 24.9283 50.1536 19.7248 50.128 12.4544C50.1025 5.20344 55.0993 0.0260829 62.1089 5.1684e-07C64.8117 -0.0130407 67.2271 0.899844 69.1248 2.49087L69.9299 0.678143L75.8213 0.658582V0.652061ZM68.3517 12.4022C68.3389 9.36359 66.1536 7.0879 63.1951 7.10094C60.2367 7.11398 58.0705 9.40271 58.0769 12.4413C58.0897 15.4995 60.2686 17.7752 63.2335 17.7621C66.1983 17.7491 68.3581 15.4604 68.3517 12.4022Z" fill="url(#paint3_linear_461_74)"/>
<path d="M95.2206 0.495565L92.4155 7.88341H90.7669C87.9682 7.90297 86.8052 9.15493 86.8116 12.1414L86.8564 24.0415L78.9522 24.0741L78.8691 0.665101L84.1599 0.645539L85.3995 3.24074C87.0097 1.32368 88.9778 0.521648 91.7062 0.508607L95.2142 0.495565H95.2206Z" fill="url(#paint4_linear_461_74)"/>
<path d="M120.633 0.652061L120.716 24.061L114.607 24.0871L113.924 22.4309C112.051 23.9893 109.674 24.8957 107.01 24.9022C99.9938 24.9283 94.9651 19.7248 94.9395 12.4544C94.9203 5.20344 99.9108 0.0260829 106.927 5.1684e-07C109.63 -0.0130407 112.045 0.899844 113.943 2.49087L114.748 0.678143L120.639 0.658582L120.633 0.652061ZM113.163 12.4022C113.15 9.36359 110.965 7.0879 108.007 7.10094C105.048 7.11398 102.882 9.40271 102.888 12.4413C102.895 15.4799 105.08 17.7752 108.045 17.7621C111.01 17.7491 113.17 15.4604 113.163 12.4022Z" fill="url(#paint5_linear_461_74)"/>
<path d="M124.857 18.2447C125.636 17.5535 126.505 17.2144 127.451 17.2144C128.397 17.2144 129.266 17.56 130.045 18.2447C130.825 18.9293 131.215 19.8683 131.215 21.055C131.215 22.2418 130.825 23.1808 130.045 23.8654C129.266 24.5501 128.397 24.8957 127.451 24.8957C126.505 24.8957 125.636 24.5501 124.857 23.8654C124.077 23.1808 123.688 22.2418 123.688 21.055C123.688 19.8683 124.077 18.9293 124.857 18.2447Z" fill="#41227A"/>
<path d="M157.125 21.5571C154.857 19.301 153.72 16.3798 153.72 12.7869C153.72 9.19405 154.87 6.29891 157.17 3.99713C159.471 1.69536 162.487 0.547731 166.225 0.547731C169.963 0.547731 173.023 1.69536 175.324 3.99713C177.624 6.29891 178.774 9.22666 178.774 12.7869C178.774 16.3472 177.637 19.301 175.368 21.5571C173.1 23.8067 170.052 24.9348 166.218 24.9348C162.384 24.9348 159.387 23.8067 157.119 21.5571H157.125ZM170.557 17.1166C171.528 15.9364 172.014 14.4953 172.014 12.7934C172.014 11.0916 171.522 9.72222 170.531 8.48983C169.541 7.26396 168.11 6.6445 166.225 6.6445C164.34 6.6445 162.953 7.25743 161.963 8.48983C160.972 9.72222 160.48 11.1502 160.48 12.7934C160.48 14.4366 160.966 15.8581 161.937 17.0709C162.908 18.2838 164.34 18.8902 166.225 18.8902C168.11 18.8902 169.586 18.2968 170.557 17.1166Z" fill="#41227A"/>
<path d="M196.71 24.9348V12.2261C196.71 8.77021 195.381 7.04878 192.716 7.04878C191.432 7.04878 190.416 7.55738 189.662 8.58112C188.908 9.60485 188.537 10.8372 188.537 12.2718V24.9283H181.771V1.24544H187.694L188.16 3.93193C189.349 1.79317 191.387 0.717267 194.269 0.717267C197.496 0.717267 199.751 2.19092 201.036 5.13172C202.071 3.53417 203.183 2.39306 204.371 1.70188C205.56 1.01722 207.017 0.671623 208.742 0.671623C211.496 0.671623 213.732 1.53234 215.438 3.2603C217.144 4.98826 218.001 7.89645 218.001 11.9849V24.9348H211.189V12.1348C211.189 8.84194 210.013 7.19875 207.668 7.19875C206.384 7.19875 205.349 7.68779 204.569 8.65936C203.783 9.63093 203.394 10.8242 203.394 12.2327V24.9413H196.723L196.71 24.9348Z" fill="#41227A"/>
<path d="M145.489 18.7924C143.757 18.7924 142.326 18.2512 141.182 17.1622C140.051 16.0863 139.482 14.6192 139.47 12.7608C139.47 10.8829 140.045 9.40271 141.182 8.32029C142.326 7.23135 143.763 6.69014 145.489 6.69014C147.214 6.69014 148.62 7.14658 149.795 8.05947L153.502 3.75587C151.495 1.61059 148.728 0.54121 145.208 0.54121C141.687 0.54121 138.767 1.63667 136.364 3.8276C133.968 6.00548 132.767 8.97235 132.754 12.7282C132.754 12.7282 132.754 12.7478 132.754 12.7543C132.754 12.7608 132.754 12.7739 132.754 12.7804C132.754 12.8065 132.754 12.826 132.754 12.8521C132.786 16.5558 133.987 19.4901 136.364 21.6484C138.773 23.8393 141.719 24.9348 145.208 24.9348C148.696 24.9348 151.489 23.8654 153.502 21.7201L149.795 17.4165C148.62 18.3294 147.188 18.7859 145.489 18.7859V18.7924Z" fill="#41227A"/>
</g>
<defs>
<linearGradient id="paint0_linear_461_74" x1="26.4792" y1="16.797" x2="78.0151" y2="30.6296" gradientUnits="userSpaceOnUse">
<stop stop-color="#ED1C24"/>
<stop offset="1" stop-color="#41227A"/>
</linearGradient>
<linearGradient id="paint1_linear_461_74" x1="0.0141666" y1="19.501" x2="18.3208" y2="19.4352" gradientUnits="userSpaceOnUse">
<stop stop-color="white" stop-opacity="0"/>
<stop offset="1"/>
</linearGradient>
<linearGradient id="paint2_linear_461_74" x1="28.5245" y1="9.55269" x2="80.4831" y2="23.492" gradientUnits="userSpaceOnUse">
<stop stop-color="#ED1C24"/>
<stop offset="1" stop-color="#41227A"/>
</linearGradient>
<linearGradient id="paint3_linear_461_74" x1="31.1121" y1="2.45175" x2="83.0708" y2="16.3974" gradientUnits="userSpaceOnUse">
<stop stop-color="#ED1C24"/>
<stop offset="1" stop-color="#41227A"/>
</linearGradient>
<linearGradient id="paint4_linear_461_74" x1="33.0608" y1="-2.81038" x2="85.0196" y2="11.1352" gradientUnits="userSpaceOnUse">
<stop stop-color="#ED1C24"/>
<stop offset="1" stop-color="#41227A"/>
</linearGradient>
<linearGradient id="paint5_linear_461_74" x1="35.2526" y1="-8.91367" x2="87.2112" y2="5.02563" gradientUnits="userSpaceOnUse">
<stop stop-color="#ED1C24"/>
<stop offset="1" stop-color="#41227A"/>
</linearGradient>
<clipPath id="clip0_461_74">
<rect width="218" height="25" fill="white"/>
</clipPath>
</defs>
</svg>
